<mxfile host="app.diagrams.net" modified="2022-06-06T18:59:22.457Z" agent="5.0 (X11)" etag="pb11qOzM5em37DpSo91r" version="19.0.0" type="github">
  <diagram name="Page-1" id="e7e014a7-5840-1c2e-5031-d8a46d1fe8dd">
    <mxGraphModel dx="3043" dy="883" grid="1" gridSize="10" guides="1" tooltips="1" connect="1" arrows="1" fold="1" page="1" pageScale="1" pageWidth="1169" pageHeight="826" background="none" math="0" shadow="0">
      <root>
        <mxCell id="0" />
        <mxCell id="1" parent="0" />
        <mxCell id="14" value="" style="edgeStyle=elbowEdgeStyle;elbow=horizontal;verticalAlign=bottom;endArrow=open;endSize=8;strokeColor=#FF0000;endFill=1;rounded=0;exitX=0.5;exitY=1;exitDx=0;exitDy=0;" parent="1" edge="1">
          <mxGeometry x="450" y="674" as="geometry">
            <mxPoint x="585" y="234" as="targetPoint" />
            <mxPoint x="585" y="184" as="sourcePoint" />
          </mxGeometry>
        </mxCell>
        <mxCell id="2" value="Rule Resolve" style="swimlane;whiteSpace=wrap" parent="1" vertex="1">
          <mxGeometry x="164.5" y="128" width="280" height="672" as="geometry" />
        </mxCell>
        <mxCell id="Mhg-CEsDIZZ4WoAjPaGp-48" value="Resolve Rules" style="" vertex="1" parent="2">
          <mxGeometry x="85" y="107" width="110" height="50" as="geometry" />
        </mxCell>
        <mxCell id="3" value="RDF Reason" style="swimlane;whiteSpace=wrap" parent="1" vertex="1">
          <mxGeometry x="444.5" y="128" width="280" height="672" as="geometry" />
        </mxCell>
        <mxCell id="13" value="" style="ellipse;shape=startState;fillColor=#000000;strokeColor=#ff0000;" parent="3" vertex="1">
          <mxGeometry x="125.5" y="32" width="30" height="30" as="geometry" />
        </mxCell>
        <mxCell id="Mhg-CEsDIZZ4WoAjPaGp-47" value="Start Reasoning" style="" vertex="1" parent="3">
          <mxGeometry x="85.5" y="107" width="110" height="50" as="geometry" />
        </mxCell>
        <mxCell id="Mhg-CEsDIZZ4WoAjPaGp-49" value="" style="endArrow=open;strokeColor=#FF0000;endFill=1;rounded=0;exitX=-0.009;exitY=0.52;exitDx=0;exitDy=0;exitPerimeter=0;" edge="1" parent="3" source="Mhg-CEsDIZZ4WoAjPaGp-47">
          <mxGeometry relative="1" as="geometry">
            <mxPoint x="75.5" y="452" as="sourcePoint" />
            <mxPoint x="-84.5" y="132" as="targetPoint" />
          </mxGeometry>
        </mxCell>
        <mxCell id="Mhg-CEsDIZZ4WoAjPaGp-51" value="" style="" vertex="1" parent="3">
          <mxGeometry x="85.5" y="168" width="110" height="50" as="geometry" />
        </mxCell>
        <mxCell id="Mhg-CEsDIZZ4WoAjPaGp-55" value="Reason" style="" vertex="1" parent="3">
          <mxGeometry x="85.5" y="232" width="110" height="50" as="geometry" />
        </mxCell>
        <mxCell id="Mhg-CEsDIZZ4WoAjPaGp-58" value="Evaluate Premises&#xa;of Rules" style="" vertex="1" parent="3">
          <mxGeometry x="85" y="342" width="110" height="50" as="geometry" />
        </mxCell>
        <mxCell id="Mhg-CEsDIZZ4WoAjPaGp-60" value="" style="endArrow=open;strokeColor=#FF0000;endFill=1;rounded=0;entryX=0.495;entryY=0;entryDx=0;entryDy=0;entryPerimeter=0;" edge="1" parent="3" target="Mhg-CEsDIZZ4WoAjPaGp-58">
          <mxGeometry relative="1" as="geometry">
            <mxPoint x="139.5" y="282" as="sourcePoint" />
            <mxPoint x="93.51999999999998" y="267" as="targetPoint" />
            <Array as="points" />
          </mxGeometry>
        </mxCell>
        <mxCell id="Mhg-CEsDIZZ4WoAjPaGp-64" value="all&#xa;evaluated" style="rhombus;fillColor=#ffffc0;strokeColor=#ff0000;" vertex="1" parent="3">
          <mxGeometry x="175.5" y="412" width="80" height="58" as="geometry" />
        </mxCell>
        <mxCell id="Mhg-CEsDIZZ4WoAjPaGp-65" value="no" style="edgeStyle=elbowEdgeStyle;elbow=horizontal;align=left;verticalAlign=top;endArrow=open;endSize=8;strokeColor=#FF0000;endFill=1;rounded=0;exitX=0.5;exitY=0;exitDx=0;exitDy=0;entryX=0.995;entryY=0.96;entryDx=0;entryDy=0;entryPerimeter=0;" edge="1" parent="3" source="Mhg-CEsDIZZ4WoAjPaGp-64" target="Mhg-CEsDIZZ4WoAjPaGp-58">
          <mxGeometry x="0.0216" y="-8" relative="1" as="geometry">
            <mxPoint x="205.5" y="392" as="targetPoint" />
            <mxPoint x="139.5" y="442" as="sourcePoint" />
            <Array as="points">
              <mxPoint x="216" y="382" />
            </Array>
            <mxPoint x="1" as="offset" />
          </mxGeometry>
        </mxCell>
        <mxCell id="Mhg-CEsDIZZ4WoAjPaGp-66" value="Generate Concusion" style="" vertex="1" parent="3">
          <mxGeometry x="85" y="472" width="110" height="50" as="geometry" />
        </mxCell>
        <mxCell id="Mhg-CEsDIZZ4WoAjPaGp-67" value="yes" style="edgeStyle=elbowEdgeStyle;elbow=horizontal;align=left;verticalAlign=top;endArrow=open;endSize=8;strokeColor=#FF0000;endFill=1;rounded=0;exitX=0.5;exitY=1;exitDx=0;exitDy=0;entryX=0.995;entryY=0.96;entryDx=0;entryDy=0;entryPerimeter=0;" edge="1" parent="3" source="Mhg-CEsDIZZ4WoAjPaGp-64">
          <mxGeometry x="0.0216" y="-8" relative="1" as="geometry">
            <mxPoint x="194.99999999999977" y="500" as="targetPoint" />
            <mxPoint x="216.04999999999995" y="522" as="sourcePoint" />
            <Array as="points">
              <mxPoint x="216.54999999999995" y="492" />
            </Array>
            <mxPoint x="1" as="offset" />
          </mxGeometry>
        </mxCell>
        <mxCell id="Mhg-CEsDIZZ4WoAjPaGp-71" value="new&#xa;additions" style="rhombus;fillColor=#ffffc0;strokeColor=#ff0000;" vertex="1" parent="3">
          <mxGeometry x="175.5" y="562" width="80" height="62" as="geometry" />
        </mxCell>
        <mxCell id="Mhg-CEsDIZZ4WoAjPaGp-72" value="yes" style="edgeStyle=elbowEdgeStyle;elbow=horizontal;align=left;verticalAlign=top;endArrow=open;endSize=8;strokeColor=#FF0000;endFill=1;rounded=0;exitX=0;exitY=0.5;exitDx=0;exitDy=0;entryX=0.014;entryY=0.54;entryDx=0;entryDy=0;entryPerimeter=0;" edge="1" parent="3" source="Mhg-CEsDIZZ4WoAjPaGp-71" target="Mhg-CEsDIZZ4WoAjPaGp-58">
          <mxGeometry x="-0.1985" y="-9" relative="1" as="geometry">
            <mxPoint x="205" y="510" as="targetPoint" />
            <mxPoint x="225.5" y="462" as="sourcePoint" />
            <Array as="points">
              <mxPoint x="56" y="472" />
            </Array>
            <mxPoint x="1" as="offset" />
          </mxGeometry>
        </mxCell>
        <mxCell id="5" value="" style="ellipse;shape=startState;fillColor=#000000;strokeColor=#ff0000;" parent="3" vertex="1">
          <mxGeometry x="200.5" y="641" width="30" height="30" as="geometry" />
        </mxCell>
        <mxCell id="4" value="Rule Optimise" style="swimlane;whiteSpace=wrap;startSize=23;" parent="1" vertex="1">
          <mxGeometry x="-115.5" y="128" width="280" height="672" as="geometry">
            <mxRectangle x="724.5" y="128" width="80" height="23" as="alternateBounds" />
          </mxGeometry>
        </mxCell>
        <mxCell id="Mhg-CEsDIZZ4WoAjPaGp-52" value="Optimise Rules" style="" vertex="1" parent="4">
          <mxGeometry x="75.5" y="182" width="110" height="50" as="geometry" />
        </mxCell>
        <mxCell id="Mhg-CEsDIZZ4WoAjPaGp-41" value="Resolve Quads" style="swimlane;whiteSpace=wrap" vertex="1" parent="1">
          <mxGeometry x="724.5" y="128" width="280" height="672" as="geometry">
            <mxRectangle x="724.5" y="128" width="80" height="23" as="alternateBounds" />
          </mxGeometry>
        </mxCell>
        <mxCell id="Mhg-CEsDIZZ4WoAjPaGp-61" value="Resolve Quads" style="" vertex="1" parent="Mhg-CEsDIZZ4WoAjPaGp-41">
          <mxGeometry x="85" y="342" width="110" height="50" as="geometry" />
        </mxCell>
        <mxCell id="6" value="" style="edgeStyle=elbowEdgeStyle;elbow=horizontal;verticalAlign=bottom;endArrow=open;endSize=8;strokeColor=#FF0000;endFill=1;rounded=0" parent="1" target="7" edge="1">
          <mxGeometry x="240" y="1025" as="geometry">
            <mxPoint x="255" y="1095" as="targetPoint" />
            <mxPoint x="255" y="1055" as="sourcePoint" />
          </mxGeometry>
        </mxCell>
        <mxCell id="7" value="idle" style="" parent="1" vertex="1">
          <mxGeometry x="200" y="1095" width="110" height="50" as="geometry" />
        </mxCell>
        <mxCell id="8" value="user action" style="" parent="1" vertex="1">
          <mxGeometry x="200" y="1205" width="110" height="50" as="geometry" />
        </mxCell>
        <mxCell id="9" value="" style="endArrow=open;strokeColor=#FF0000;endFill=1;rounded=0" parent="1" source="7" target="8" edge="1">
          <mxGeometry relative="1" as="geometry" />
        </mxCell>
        <mxCell id="10" value="post command" style="" parent="1" vertex="1">
          <mxGeometry x="190" y="985" width="110" height="50" as="geometry" />
        </mxCell>
        <mxCell id="11" value="" style="endArrow=open;strokeColor=#FF0000;endFill=1;rounded=0" parent="1" source="8" target="10" edge="1">
          <mxGeometry relative="1" as="geometry" />
        </mxCell>
        <mxCell id="12" value="" style="edgeStyle=elbowEdgeStyle;elbow=horizontal;strokeColor=#FF0000;endArrow=open;endFill=1;rounded=0" parent="1" source="10" target="7" edge="1">
          <mxGeometry width="100" height="100" relative="1" as="geometry">
            <mxPoint x="290" y="950" as="sourcePoint" />
            <mxPoint x="390" y="850" as="targetPoint" />
            <Array as="points">
              <mxPoint x="160" y="910" />
            </Array>
          </mxGeometry>
        </mxCell>
        <mxCell id="15" value="idle" style="" parent="1" vertex="1">
          <mxGeometry x="415" y="1101" width="110" height="50" as="geometry" />
        </mxCell>
        <mxCell id="16" value="check for &#xa;new commands" style="" parent="1" vertex="1">
          <mxGeometry x="440" y="1205" width="110" height="50" as="geometry" />
        </mxCell>
        <mxCell id="17" value="" style="endArrow=open;strokeColor=#FF0000;endFill=1;rounded=0" parent="1" source="15" target="16" edge="1">
          <mxGeometry relative="1" as="geometry" />
        </mxCell>
        <mxCell id="18" value="command queue" style="" parent="1" vertex="1">
          <mxGeometry x="430" y="985" width="110" height="50" as="geometry" />
        </mxCell>
        <mxCell id="19" value="" style="endArrow=open;strokeColor=#FF0000;endFill=1;rounded=0" parent="1" source="16" target="18" edge="1">
          <mxGeometry relative="1" as="geometry" />
        </mxCell>
        <mxCell id="21" value="queue empty" style="rhombus;fillColor=#ffffc0;strokeColor=#ff0000;" parent="1" vertex="1">
          <mxGeometry x="570" y="1210" width="80" height="40" as="geometry" />
        </mxCell>
        <mxCell id="23" value="no" style="edgeStyle=elbowEdgeStyle;elbow=horizontal;align=left;verticalAlign=top;endArrow=open;endSize=8;strokeColor=#FF0000;endFill=1;rounded=0" parent="1" source="21" target="30" edge="1">
          <mxGeometry x="-1" relative="1" as="geometry">
            <mxPoint x="600" y="965" as="targetPoint" />
          </mxGeometry>
        </mxCell>
        <mxCell id="24" value="" style="endArrow=open;strokeColor=#FF0000;endFill=1;rounded=0" parent="1" source="16" target="21" edge="1">
          <mxGeometry relative="1" as="geometry" />
        </mxCell>
        <mxCell id="30" value="dispatch&#xa;command&#xa;worker thread" style="" parent="1" vertex="1">
          <mxGeometry x="550" y="985" width="110" height="50" as="geometry" />
        </mxCell>
        <mxCell id="31" value="critical&#xa;section" style="shape=note;whiteSpace=wrap;size=17" parent="1" vertex="1">
          <mxGeometry x="515" y="1150" width="100" height="50" as="geometry" />
        </mxCell>
        <mxCell id="32" value="" style="endArrow=none;strokeColor=#FF0000;endFill=0;rounded=0;dashed=1" parent="1" source="18" target="31" edge="1">
          <mxGeometry relative="1" as="geometry" />
        </mxCell>
        <mxCell id="34" value="" style="whiteSpace=wrap;strokeColor=#FF0000;fillColor=#FF0000" parent="1" vertex="1">
          <mxGeometry x="655" y="1055" width="5" height="45" as="geometry" />
        </mxCell>
        <mxCell id="41" value="" style="edgeStyle=elbowEdgeStyle;elbow=horizontal;entryX=0;entryY=0.5;strokeColor=#FF0000;endArrow=open;endFill=1;rounded=0" parent="1" source="30" target="34" edge="1">
          <mxGeometry width="100" height="100" relative="1" as="geometry">
            <mxPoint x="470" y="1140" as="sourcePoint" />
            <mxPoint x="570" y="1040" as="targetPoint" />
            <Array as="points">
              <mxPoint x="605" y="1060" />
            </Array>
          </mxGeometry>
        </mxCell>
        <mxCell id="33" value="process&#xa;command" style="" parent="1" vertex="1">
          <mxGeometry x="780" y="1065" width="110" height="50" as="geometry" />
        </mxCell>
        <mxCell id="37" value="" style="edgeStyle=none;strokeColor=#FF0000;endArrow=open;endFill=1;rounded=0" parent="1" target="33" edge="1">
          <mxGeometry width="100" height="100" relative="1" as="geometry">
            <mxPoint x="660" y="1089.5" as="sourcePoint" />
            <mxPoint x="780" y="1089.5" as="targetPoint" />
          </mxGeometry>
        </mxCell>
        <mxCell id="38" value="" style="ellipse;shape=endState;fillColor=#000000;strokeColor=#ff0000" parent="1" vertex="1">
          <mxGeometry x="820" y="1160" width="30" height="30" as="geometry" />
        </mxCell>
        <mxCell id="39" value="" style="endArrow=open;strokeColor=#FF0000;endFill=1;rounded=0" parent="1" source="33" target="38" edge="1">
          <mxGeometry relative="1" as="geometry" />
        </mxCell>
        <mxCell id="20" value="" style="endArrow=open;strokeColor=#FF0000;endFill=1;rounded=0" parent="1" source="10" target="18" edge="1">
          <mxGeometry relative="1" as="geometry" />
        </mxCell>
        <mxCell id="Mhg-CEsDIZZ4WoAjPaGp-42" value="process&#xa;command" style="" vertex="1" parent="1">
          <mxGeometry x="1060" y="1065" width="110" height="50" as="geometry" />
        </mxCell>
        <mxCell id="Mhg-CEsDIZZ4WoAjPaGp-44" value="" style="edgeStyle=none;strokeColor=#FF0000;endArrow=open;endFill=1;rounded=0" edge="1" parent="1" target="Mhg-CEsDIZZ4WoAjPaGp-42">
          <mxGeometry width="100" height="100" relative="1" as="geometry">
            <mxPoint x="940" y="1089.5" as="sourcePoint" />
            <mxPoint x="1060" y="1089.5" as="targetPoint" />
          </mxGeometry>
        </mxCell>
        <mxCell id="Mhg-CEsDIZZ4WoAjPaGp-45" value="" style="ellipse;shape=endState;fillColor=#000000;strokeColor=#ff0000" vertex="1" parent="1">
          <mxGeometry x="1100" y="1160" width="30" height="30" as="geometry" />
        </mxCell>
        <mxCell id="Mhg-CEsDIZZ4WoAjPaGp-46" value="" style="endArrow=open;strokeColor=#FF0000;endFill=1;rounded=0" edge="1" parent="1" source="Mhg-CEsDIZZ4WoAjPaGp-42" target="Mhg-CEsDIZZ4WoAjPaGp-45">
          <mxGeometry relative="1" as="geometry" />
        </mxCell>
        <mxCell id="Mhg-CEsDIZZ4WoAjPaGp-50" value="" style="endArrow=open;strokeColor=#FF0000;endFill=1;rounded=0;entryX=0;entryY=0.286;entryDx=0;entryDy=0;entryPerimeter=0;exitX=0.51;exitY=0.994;exitDx=0;exitDy=0;exitPerimeter=0;" edge="1" parent="1" source="Mhg-CEsDIZZ4WoAjPaGp-48" target="Mhg-CEsDIZZ4WoAjPaGp-51">
          <mxGeometry relative="1" as="geometry">
            <mxPoint x="305" y="290" as="sourcePoint" />
            <mxPoint x="530" y="320" as="targetPoint" />
            <Array as="points">
              <mxPoint x="305" y="310" />
            </Array>
          </mxGeometry>
        </mxCell>
        <mxCell id="Mhg-CEsDIZZ4WoAjPaGp-53" value="" style="endArrow=open;strokeColor=#FF0000;endFill=1;rounded=0;entryX=0.991;entryY=0.66;entryDx=0;entryDy=0;entryPerimeter=0;" edge="1" parent="1" target="Mhg-CEsDIZZ4WoAjPaGp-52">
          <mxGeometry relative="1" as="geometry">
            <mxPoint x="530" y="341" as="sourcePoint" />
            <mxPoint x="70" y="333" as="targetPoint" />
          </mxGeometry>
        </mxCell>
        <mxCell id="Mhg-CEsDIZZ4WoAjPaGp-54" value="" style="endArrow=open;strokeColor=#FF0000;endFill=1;rounded=0;entryX=-0.018;entryY=0.5;entryDx=0;entryDy=0;entryPerimeter=0;" edge="1" parent="1" target="Mhg-CEsDIZZ4WoAjPaGp-55">
          <mxGeometry relative="1" as="geometry">
            <mxPoint x="15" y="360" as="sourcePoint" />
            <mxPoint x="520" y="380" as="targetPoint" />
            <Array as="points">
              <mxPoint x="15" y="385" />
            </Array>
          </mxGeometry>
        </mxCell>
        <mxCell id="Mhg-CEsDIZZ4WoAjPaGp-59" value="Update Quads" style="swimlane;whiteSpace=wrap" vertex="1" parent="1">
          <mxGeometry x="1004.5" y="128" width="280" height="672" as="geometry">
            <mxRectangle x="724.5" y="128" width="80" height="23" as="alternateBounds" />
          </mxGeometry>
        </mxCell>
        <mxCell id="Mhg-CEsDIZZ4WoAjPaGp-69" value="Update Quads" style="" vertex="1" parent="Mhg-CEsDIZZ4WoAjPaGp-59">
          <mxGeometry x="105.5" y="512" width="110" height="50" as="geometry" />
        </mxCell>
        <mxCell id="Mhg-CEsDIZZ4WoAjPaGp-62" value="" style="endArrow=open;strokeColor=#FF0000;endFill=1;rounded=0;entryX=-0.005;entryY=0.5;entryDx=0;entryDy=0;entryPerimeter=0;exitX=1.005;exitY=0.5;exitDx=0;exitDy=0;exitPerimeter=0;" edge="1" parent="1" source="Mhg-CEsDIZZ4WoAjPaGp-58" target="Mhg-CEsDIZZ4WoAjPaGp-61">
          <mxGeometry relative="1" as="geometry">
            <mxPoint x="594" y="420" as="sourcePoint" />
            <mxPoint x="593.9499999999998" y="480" as="targetPoint" />
            <Array as="points" />
          </mxGeometry>
        </mxCell>
        <mxCell id="Mhg-CEsDIZZ4WoAjPaGp-63" value="" style="endArrow=open;strokeColor=#FF0000;endFill=1;rounded=0;exitX=0.495;exitY=1;exitDx=0;exitDy=0;exitPerimeter=0;entryX=1;entryY=0.5;entryDx=0;entryDy=0;" edge="1" parent="1" source="Mhg-CEsDIZZ4WoAjPaGp-61" target="Mhg-CEsDIZZ4WoAjPaGp-64">
          <mxGeometry relative="1" as="geometry">
            <mxPoint x="650.0500000000002" y="505" as="sourcePoint" />
            <mxPoint x="700" y="560" as="targetPoint" />
            <Array as="points">
              <mxPoint x="864" y="570" />
            </Array>
          </mxGeometry>
        </mxCell>
        <mxCell id="Mhg-CEsDIZZ4WoAjPaGp-68" value="" style="endArrow=open;strokeColor=#FF0000;endFill=1;rounded=0;exitX=0.495;exitY=1.06;exitDx=0;exitDy=0;exitPerimeter=0;entryX=-0.027;entryY=0.56;entryDx=0;entryDy=0;entryPerimeter=0;" edge="1" parent="1" source="Mhg-CEsDIZZ4WoAjPaGp-66" target="Mhg-CEsDIZZ4WoAjPaGp-69">
          <mxGeometry relative="1" as="geometry">
            <mxPoint x="650.0500000000002" y="505" as="sourcePoint" />
            <mxPoint x="1100" y="670" as="targetPoint" />
            <Array as="points">
              <mxPoint x="584" y="670" />
            </Array>
          </mxGeometry>
        </mxCell>
        <mxCell id="Mhg-CEsDIZZ4WoAjPaGp-70" value="" style="endArrow=open;strokeColor=#FF0000;endFill=1;rounded=0;exitX=0.491;exitY=1.02;exitDx=0;exitDy=0;exitPerimeter=0;" edge="1" parent="1" source="Mhg-CEsDIZZ4WoAjPaGp-69">
          <mxGeometry relative="1" as="geometry">
            <mxPoint x="569.9999999999998" y="780" as="sourcePoint" />
            <mxPoint x="700" y="720" as="targetPoint" />
            <Array as="points">
              <mxPoint x="1164" y="720" />
            </Array>
          </mxGeometry>
        </mxCell>
        <mxCell id="Mhg-CEsDIZZ4WoAjPaGp-73" value="no" style="edgeStyle=elbowEdgeStyle;elbow=horizontal;verticalAlign=bottom;endArrow=open;endSize=8;strokeColor=#FF0000;endFill=1;rounded=0;exitX=0.5;exitY=1;exitDx=0;exitDy=0;" edge="1" parent="1" source="Mhg-CEsDIZZ4WoAjPaGp-71">
          <mxGeometry as="geometry">
            <mxPoint x="660" y="770" as="targetPoint" />
            <mxPoint x="595" y="194" as="sourcePoint" />
            <mxPoint x="-20" y="19" as="offset" />
          </mxGeometry>
        </mxCell>
      </root>
    </mxGraphModel>
  </diagram>
</mxfile>
